<svg width="22" height="19" viewBox="0 0 22 19" fill="none"
    xmlns="http://www.w3.org/2000/svg">
    <path fill-rule="evenodd" clip-rule="evenodd" d="M17 0.5C18.1046 0.5 19 1.35919 19 2.41905V2.5H20C21.1046 2.5 22 3.39543 22 4.5V16.5C22 17.6046 21.1046 18.5 20 18.5H2C0.89543 18.5 0 17.6046 0 16.5V4.5C0 3.39543 0.89543 2.5 2 2.5H3V2.41905C3 1.40737 3.81588 0.578523 4.85074 0.505264L5 0.5C5.18583 0.5 5.37076 0.524852 5.54944 0.573838L11 2.068L16.4506 0.573838C16.6292 0.524852 16.8142 0.5 17 0.5ZM3 4.5H2V16.5H20V4.5H19V12.8971C19 13.7539 18.408 14.5069 17.5494 14.7423L11.2803 16.4615C11.2093 16.4815 11.1353 16.4941 11.0597 16.4984H10.9403C10.8647 16.4941 10.7907 16.4815 10.7197 16.4615L4.45056 14.7423C3.59195 14.5069 3 13.7539 3 12.8971V4.5ZM5 2.5V13.112L10 14.5V3.88799L5 2.5ZM17 2.5L12 3.88799V14.5L17 13.112V2.5ZM7.16525 10.5112L7.27993 10.5334L8.26821 10.7778C8.80256 10.9099 9.11304 11.395 8.96167 11.8613C8.82112 12.2944 8.33177 12.5589 7.83475 12.4888L7.72007 12.4666L6.73179 12.2222C6.19744 12.0901 5.88696 11.605 6.03833 11.1387C6.17888 10.7056 6.66823 10.4411 7.16525 10.5112ZM14.8347 10.5112C15.3318 10.4411 15.8211 10.7056 15.9617 11.1387C16.113 11.605 15.8026 12.0901 15.2682 12.2222L14.2799 12.4666L14.1653 12.4888C13.6682 12.5589 13.1789 12.2944 13.0383 11.8613C12.887 11.395 13.1974 10.9099 13.7318 10.7778L14.7201 10.5334L14.8347 10.5112ZM7.16525 7.51124L7.27993 7.53345L8.26821 7.77776C8.80256 7.90986 9.11304 8.395 8.96167 8.86135C8.82112 9.29438 8.33177 9.55895 7.83475 9.48876L7.72007 9.46655L6.73179 9.22224C6.19744 9.09014 5.88696 8.605 6.03833 8.13865C6.17888 7.70562 6.66823 7.44105 7.16525 7.51124ZM14.8347 7.51124C15.3318 7.44105 15.8211 7.70562 15.9617 8.13865C16.113 8.605 15.8026 9.09014 15.2682 9.22224L14.2799 9.46655L14.1653 9.48876C13.6682 9.55895 13.1789 9.29438 13.0383 8.86135C12.887 8.395 13.1974 7.90986 13.7318 7.77776L14.7201 7.53345L14.8347 7.51124ZM7.16525 4.51123L7.27993 4.53345L8.26821 4.77776C8.80256 4.90986 9.11304 5.395 8.96167 5.86135C8.82112 6.29438 8.33177 6.55895 7.83475 6.48876L7.72007 6.46655L6.73179 6.22224C6.19744 6.09014 5.88696 5.605 6.03833 5.13865C6.17888 4.70562 6.66823 4.44105 7.16525 4.51123ZM14.8347 4.51123C15.3318 4.44105 15.8211 4.70562 15.9617 5.13865C16.113 5.605 15.8026 6.09014 15.2682 6.22224L14.2799 6.46655L14.1653 6.48876C13.6682 6.55895 13.1789 6.29438 13.0383 5.86135C12.887 5.395 13.1974 4.90986 13.7318 4.77776L14.7201 4.53345L14.8347 4.51123Z" fill="currentColor"/>
</svg>
