<svg width="24" height="25" viewBox="0 0 24 25" fill="none"
    xmlns="http://www.w3.org/2000/svg">
    <path fill-rule="evenodd" clip-rule="evenodd" d="M16.7071 12.7929C17.0976 13.1834 17.0976 13.8166 16.7071 14.2071L13.414 17.5009C15.0611 18.4603 16 20.1164 16 22.5H2C2 18.45 4.71081 16.5 9 16.5C9.84951 16.5 10.6371 16.5765 11.354 16.7306L15.2929 12.7929C15.6834 12.4024 16.3166 12.4024 16.7071 12.7929ZM8.85171 18.5C6.37597 18.5 4.89538 19.173 4.35171 20.5H13.3517C12.808 19.173 11.3274 18.5 8.85171 18.5ZM20 2.5C21.1046 2.5 22 3.39543 22 4.5V14.5C22 15.6046 21.1046 16.5 20 16.5H17L19 14.5H20V4.5H4V16.5028L3.85068 16.4971C2.81547 16.4193 2 15.5548 2 14.5V4.5C2 3.39543 2.89543 2.5 4 2.5H20ZM9 9.5C10.65 9.5 12 10.85 12 12.5C12 14.15 10.65 15.5 9 15.5C7.35 15.5 6 14.15 6 12.5C6 10.85 7.35 9.5 9 9.5ZM9 11.5C8.45228 11.5 8 11.9523 8 12.5C8 13.0477 8.45228 13.5 9 13.5C9.54772 13.5 10 13.0477 10 12.5C10 11.9523 9.54772 11.5 9 11.5Z" fill="currentColor"/>
</svg>
