<svg width="18" height="10" viewBox="0 0 18 10" fill="none"
    xmlns="http://www.w3.org/2000/svg">
    <path fill-rule="evenodd" clip-rule="evenodd" d="M12.2929 0.292893C12.6834 -0.0976311 13.3166 -0.0976311 13.7071 0.292893L17.7071 4.29289C18.0976 4.68342 18.0976 5.31658 17.7071 5.70711L13.7071 9.70711C13.3166 10.0976 12.6834 10.0976 12.2929 9.70711C11.9024 9.31658 11.9024 8.68342 12.2929 8.29289L15.5858 5L12.2929 1.70711C11.9024 1.31658 11.9024 0.683417 12.2929 0.292893Z" fill="currentColor"/>
    <path fill-rule="evenodd" clip-rule="evenodd" d="M5.70711 0.292893C5.31658 -0.0976311 4.68342 -0.0976311 4.29289 0.292893L0.292893 4.29289C-0.097631 4.68342 -0.097631 5.31658 0.292893 5.70711L4.29289 9.70711C4.68342 10.0976 5.31658 10.0976 5.70711 9.70711C6.09763 9.31658 6.09763 8.68342 5.70711 8.29289L2.41421 5L5.70711 1.70711C6.09763 1.31658 6.09763 0.683417 5.70711 0.292893Z" fill="currentColor"/>
</svg>
