<svg width="20" height="20" viewBox="0 0 20 20" fill="none"
    xmlns="http://www.w3.org/2000/svg">
    <path fill-rule="evenodd" clip-rule="evenodd" d="M14.7071 6.29289C15.0976 6.68342 15.0976 7.31658 14.7071 7.70711L12.4142 10L14.7071 12.2929C15.0976 12.6834 15.0976 13.3166 14.7071 13.7071C14.3166 14.0976 13.6834 14.0976 13.2929 13.7071L10.2929 10.7071C9.90237 10.3166 9.90237 9.68342 10.2929 9.29289L13.2929 6.29289C13.6834 5.90237 14.3166 5.90237 14.7071 6.29289Z" fill="#212529"/>
    <path fill-rule="evenodd" clip-rule="evenodd" d="M4 0H16C18.2091 0 20 1.79086 20 4V16C20 18.2091 18.2091 20 16 20H4C1.79086 20 0 18.2091 0 16V4C0 1.79086 1.79086 0 4 0ZM4 2C2.89543 2 2 2.89543 2 4V16C2 17.1046 2.89543 18 4 18H5L5 2H4ZM16 18H7L7 2H16C17.1046 2 18 2.89543 18 4V16C18 17.1046 17.1046 18 16 18Z" fill="currentColor"/>
</svg>
