<svg width="24" height="24" viewBox="0 0 24 24" fill="none"
    xmlns="http://www.w3.org/2000/svg">
    <path fill-rule="evenodd" clip-rule="evenodd" d="M4 1C3.44772 1 3 1.44772 3 2V20C3 20.5523 3.44772 21 4 21H7.6665V22C7.6665 22.5523 8.11422 23 8.6665 23H19.9998C20.5521 23 20.9998 22.5523 20.9998 22V5.76001C20.9998 5.20773 20.5521 4.76001 19.9998 4.76001H16V2C16 1.44772 15.5523 1 15 1H4ZM14 4.76001V3H5V19H7.6665V5.76001C7.6665 5.20773 8.11422 4.76001 8.6665 4.76001H14ZM9.6665 21V6.76001H18.9998V21H9.6665Z" fill="currentColor"/>
</svg>
