<svg width="24" height="24" viewBox="0 0 24 24" fill="none"
    xmlns="http://www.w3.org/2000/svg">
    <path fill-rule="evenodd" clip-rule="evenodd" d="M11 4C11.5523 4 12 4.44772 12 5C12 5.55228 11.5523 6 11 6H4.5C4.22386 6 4 6.22386 4 6.5V19.5C4 19.7761 4.22386 20 4.5 20H17.5C17.7761 20 18 19.7761 18 19.5V13C18 12.4477 18.4477 12 19 12C19.5523 12 20 12.4477 20 13V19.5C20 20.8807 18.8807 22 17.5 22H4.5C3.11929 22 2 20.8807 2 19.5V6.5C2 5.11929 3.11929 4 4.5 4H11ZM21 2L21.0194 2.00019C21.0427 2.00063 21.066 2.00189 21.0893 2.00397L21 2C21.0506 2 21.1004 2.00376 21.149 2.01102C21.166 2.01363 21.1834 2.0167 21.2007 2.02024C21.2227 2.02464 21.2444 2.02983 21.2658 2.03572C21.2815 2.0401 21.2969 2.04473 21.3121 2.04974C21.3318 2.05612 21.3516 2.06332 21.3711 2.0711C21.3888 2.0782 21.4061 2.08568 21.4232 2.09367C21.4439 2.10338 21.4643 2.11379 21.4843 2.12488C21.4964 2.1315 21.5086 2.13861 21.5207 2.146C21.5463 2.16172 21.5711 2.17849 21.5952 2.19631C21.6026 2.20175 21.6098 2.20728 21.617 2.21293C21.6802 2.26255 21.7374 2.31982 21.7872 2.38325L21.7071 2.29289C21.7425 2.32829 21.7747 2.36567 21.8037 2.40469C21.8215 2.42887 21.8383 2.45373 21.8539 2.47934C21.8614 2.49139 21.8685 2.50361 21.8753 2.51594C21.8862 2.53571 21.8966 2.55611 21.9063 2.5769C21.9143 2.5939 21.9218 2.6112 21.9288 2.62866C21.9367 2.64842 21.9439 2.6682 21.9505 2.68826C21.9553 2.70315 21.9599 2.71854 21.9642 2.73401C21.9702 2.75556 21.9754 2.77725 21.9798 2.79921C21.9833 2.81662 21.9864 2.83405 21.989 2.85153C21.992 2.87148 21.9945 2.89211 21.9963 2.91294C21.9978 2.93173 21.9989 2.94973 21.9995 2.96775C21.9998 2.97779 22 2.98887 22 3V9C22 9.55228 21.5523 10 21 10C20.4477 10 20 9.55228 20 9V5.414L12.7071 12.7071C12.3166 13.0976 11.6834 13.0976 11.2929 12.7071C10.9024 12.3166 10.9024 11.6834 11.2929 11.2929L18.584 4H15C14.4477 4 14 3.55228 14 3C14 2.44772 14.4477 2 15 2H21Z" fill="currentColor"/>
</svg>
