<svg width="24" height="24" viewBox="0 0 24 24" fill="none" xmlns="http://www.w3.org/2000/svg">
<path fill-rule="evenodd" clip-rule="evenodd" d="M12 18C15.9721 18 18.9649 15.8444 20.8095 12C18.9649 8.15559 15.9721 6 12 6C8.02794 6 5.03506 8.15559 3.19052 12C5.03506 15.8444 8.02794 18 12 18ZM12 4C17.5 4 21.097 7.43896 23 12C21.097 16.561 17.5 20 12 20C6.5 20 2.903 16.561 1 12C2.903 7.43896 6.5 4 12 4ZM12 8C9.78667 8 8 9.78667 8 12C8 14.2133 9.78667 16 12 16C14.2133 16 16 14.2133 16 12C16 9.78667 14.2133 8 12 8ZM12 10C13.1088 10 14 10.8912 14 12C14 13.1088 13.1088 14 12 14C10.8912 14 10 13.1088 10 12C10 10.8912 10.8912 10 12 10Z" fill="currentColor"/>
</svg>
