<svg width="24" height="24" viewBox="0 0 24 24" fill="none"
    xmlns="http://www.w3.org/2000/svg">
    <path d="M7.29289 7.70711L11.5858 12L7.29289 16.2929C6.90237 16.6834 6.90237 17.3166 7.29289 17.7071C7.68342 18.0976 8.31658 18.0976 8.70711 17.7071L13.7071 12.7071C14.0976 12.3166 14.0976 11.6834 13.7071 11.2929L8.70711 6.29289C8.31658 5.90237 7.68342 5.90237 7.29289 6.29289C6.90237 6.68342 6.90237 7.31658 7.29289 7.70711Z" fill="#212529"/>
    <path d="M17 6C16.4477 6 16 6.44771 16 7V17C16 17.5523 16.4477 18 17 18C17.5523 18 18 17.5523 18 17V7C18 6.44771 17.5523 6 17 6Z" fill="currentColor"/>
</svg>
