<svg width="35" height="36" viewBox="0 0 35 36" fill="none" xmlns="http://www.w3.org/2000/svg">
<path d="M0.384766 0V18.7191C0.384766 27.923 5.75729 30.5497 8.33909 31.8124C8.81324 32.0439 16.781 35.6071 17.2915 35.8349L17.6348 36L17.9777 35.8351C18.4388 35.6289 26.455 32.0447 26.9301 31.8124C29.5121 30.5497 34.8848 27.9229 34.8848 18.7191V0H0.384766Z" fill="#082663"/>
<path d="M11.8393 21.8168C10.4684 21.8168 9.32205 21.5628 8.40023 21.0546C7.47841 20.5464 6.78704 19.8137 6.32613 18.8564C5.86522 17.8991 5.63477 16.7527 5.63477 15.4173C5.63477 14.0936 5.87704 12.9532 6.36159 11.9959C6.84613 11.0386 7.54341 10.3 8.45341 9.78C9.36341 9.26 10.4625 9 11.7507 9C12.6607 9 13.4466 9.13591 14.1084 9.40773C14.7821 9.66773 15.3848 10.0577 15.9166 10.5777L15.3671 11.73C14.9771 11.3873 14.5989 11.1155 14.2325 10.9146C13.878 10.7136 13.5057 10.5659 13.1157 10.4714C12.7257 10.365 12.2707 10.3118 11.7507 10.3118C10.2734 10.3118 9.13886 10.7609 8.34704 11.6591C7.56704 12.5455 7.17704 13.8041 7.17704 15.435C7.17704 17.0777 7.55522 18.3364 8.31159 19.2109C9.07977 20.0855 10.2675 20.5228 11.8748 20.5228C12.4657 20.5228 13.0271 20.4696 13.5589 20.3632C14.1025 20.245 14.3093 20.2061 14.8175 19.9933V16.2682H11.6266V15.1159H16.0762V20.9128C15.568 21.1846 14.9239 21.4032 14.1439 21.5687C13.3757 21.7341 12.6075 21.8168 11.8393 21.8168Z" fill="white"/>
<path d="M18.6013 15.3996C18.6013 14.0759 18.8259 12.9414 19.275 11.9959C19.7359 11.0386 20.3918 10.3 21.2427 9.78C22.1054 9.26 23.1395 9 24.345 9C25.515 9 26.5313 9.26 27.3941 9.78C28.2568 10.3 28.9186 11.0386 29.3795 11.9959C29.8523 12.9414 30.0886 14.07 30.0886 15.3818C30.0886 16.7055 29.8523 17.8459 29.3795 18.8032C28.9068 19.7605 28.2391 20.505 27.3763 21.0368C26.5254 21.5568 25.515 21.8168 24.345 21.8168C23.1395 21.8168 22.1113 21.5568 21.2604 21.0368C20.4095 20.505 19.7536 19.7605 19.2927 18.8032C18.8318 17.8459 18.6013 16.7114 18.6013 15.3996ZM20.1436 15.3996C20.1436 17.0068 20.4981 18.2655 21.2072 19.1755C21.9163 20.0737 22.9622 20.5228 24.345 20.5228C25.6686 20.5228 26.6968 20.0737 27.4295 19.1755C28.1741 18.2655 28.5463 17.0068 28.5463 15.3996C28.5463 13.7805 28.18 12.5277 27.4473 11.6414C26.7145 10.7432 25.6804 10.2941 24.345 10.2941C22.9622 10.2941 21.9163 10.7432 21.2072 11.6414C20.4981 12.5277 20.1436 13.7805 20.1436 15.3996Z" fill="white"/>
</svg>
