<svg width="24" height="24" viewBox="0 0 24 24" fill="none" xmlns="http://www.w3.org/2000/svg">
<path fill-rule="evenodd" clip-rule="evenodd" d="M12 2C17.5228 2 22 6.47715 22 12C22 17.5228 17.5228 22 12 22C6.47715 22 2 17.5228 2 12C2 6.47715 6.47715 2 12 2ZM12 11C11.4477 11 11 11.4477 11 12V16.5C11 17.0523 11.4477 17.5 12 17.5C12.5523 17.5 13 17.0523 13 16.5V12C13 11.4477 12.5523 11 12 11ZM12 7C11.4477 7 11 7.44772 11 8C11 8.55228 11.4477 9 12 9C12.5523 9 13 8.55228 13 8C13 7.44772 12.5523 7 12 7Z" fill="currentColor"/>
</svg>
