<svg width="24" height="24" viewBox="0 0 24 24" fill="none"
    xmlns="http://www.w3.org/2000/svg">
    <path d="M17.7071 16.2929L13.4142 12L17.7071 7.70711C18.0976 7.31658 18.0976 6.68342 17.7071 6.29289C17.3166 5.90237 16.6834 5.90237 16.2929 6.29289L11.2929 11.2929C10.9024 11.6834 10.9024 12.3166 11.2929 12.7071L16.2929 17.7071C16.6834 18.0976 17.3166 18.0976 17.7071 17.7071C18.0976 17.3166 18.0976 16.6834 17.7071 16.2929Z" fill="#212529"/>
    <path d="M8 18C8.55228 18 9 17.5523 9 17V7C9 6.44772 8.55228 6 8 6C7.44772 6 7 6.44772 7 7V17C7 17.5523 7.44772 18 8 18Z" fill="currentColor"/>
</svg>
