<svg width="24" height="24" viewBox="0 0 24 24" fill="none"
    xmlns="http://www.w3.org/2000/svg">
    <path fill-rule="evenodd" clip-rule="evenodd" d="M12 15C8.34235 15 6.15493 16.0096 5.35171 18H18.6483C17.8451 16.0096 15.6576 15 12 15ZM12 13C17.5147 13 21 15.275 21 20H3C3 15.275 6.48533 13 12 13ZM12 3C14.2 3 16 4.8 16 7C16 9.2 14.2 11 12 11C9.8 11 8 9.2 8 7C8 4.8 9.8 3 12 3ZM12 5C10.9046 5 10 5.90457 10 7C10 8.09543 10.9046 9 12 9C13.0954 9 14 8.09543 14 7C14 5.90457 13.0954 5 12 5Z" fill="currentColor"/>
</svg>
