<svg width="18" height="20" viewBox="0 0 18 20" fill="none"
    xmlns="http://www.w3.org/2000/svg">
    <path fill-rule="evenodd" clip-rule="evenodd" d="M15.5556 0C16.7829 0 17.7778 0.994923 17.7778 2.22222V17.7778C17.7778 19.0051 16.7829 20 15.5556 20H2.22222C0.994923 20 0 19.0051 0 17.7778V2.22222C0 0.994923 0.994923 0 2.22222 0H15.5556ZM15.5556 2.22222H2.22222V17.7778H15.5556V2.22222ZM5.55556 11.1111C4.94222 11.1111 4.44444 10.6133 4.44444 10C4.44444 9.38667 4.94222 8.88889 5.55556 8.88889H12.2222C12.8356 8.88889 13.3333 9.38667 13.3333 10C13.3333 10.6133 12.8356 11.1111 12.2222 11.1111H5.55556ZM5.55556 6.66667C4.94222 6.66667 4.44444 6.16889 4.44444 5.55556C4.44444 4.94222 4.94222 4.44444 5.55556 4.44444H12.2222C12.8356 4.44444 13.3333 4.94222 13.3333 5.55556C13.3333 6.16889 12.8356 6.66667 12.2222 6.66667H5.55556ZM5.55556 15.5556C4.94222 15.5556 4.44444 15.0578 4.44444 14.4444C4.44444 13.8311 4.94222 13.3333 5.55556 13.3333H8.88889C9.50222 13.3333 10 13.8311 10 14.4444C10 15.0578 9.50222 15.5556 8.88889 15.5556H5.55556Z" fill="currentColor"/>
</svg>
