<svg width="24" height="24" viewBox="0 0 24 24" fill="none" xmlns="http://www.w3.org/2000/svg">
<path fill-rule="evenodd" clip-rule="evenodd" d="M11 16C13.7614 16 16 13.7614 16 11C16 8.23858 13.7614 6 11 6C8.23858 6 6 8.23858 6 11C6 13.7614 8.23858 16 11 16ZM11 4C14.866 4 18 7.13401 18 11C18 12.5723 17.4816 14.0236 16.6064 15.1922L19.7071 18.2929C20.0976 18.6834 20.0976 19.3166 19.7071 19.7071C19.3166 20.0976 18.6834 20.0976 18.2929 19.7071L15.1922 16.6064C14.0236 17.4816 12.5723 18 11 18C7.13401 18 4 14.866 4 11C4 7.13401 7.13401 4 11 4Z" fill="currentColor"/>
</svg>
