<svg width="24" height="24" viewBox="0 0 24 24" fill="none"
    xmlns="http://www.w3.org/2000/svg">
    <path fill-rule="evenodd" clip-rule="evenodd" d="M4 13.997L14 14V4H4V13.997ZM21 8.0004C21.552 8.0004 22 8.4484 22 9.0004V21.0004C22 21.2654 21.895 21.5204 21.707 21.7074C21.52 21.8954 21.265 22.0004 21 22.0004L9 21.9964C8.447 21.9964 8 21.5484 8 20.9964C8 20.4444 8.448 19.9964 9 19.9964L20 20.0004V9.0004C20 8.4484 20.448 8.0004 21 8.0004ZM18 5.0004C18.552 5.0004 19 5.4484 19 6.0004V18.0004C19 18.2654 18.895 18.5204 18.707 18.7074C18.52 18.8954 18.265 19.0004 18 19.0004L6 18.9964C5.447 18.9964 5 18.5484 5 17.9964C5 17.4444 5.448 16.9964 6 16.9964L17 17.0004V6.0004C17 5.4484 17.448 5.0004 18 5.0004ZM15 2C15.552 2 16 2.448 16 3V15C16 15.266 15.895 15.52 15.707 15.707C15.52 15.895 15.265 16 15 16L3 15.997C2.448 15.997 2 15.549 2 14.997V3C2 2.448 2.448 2 3 2H15ZM9.29901 5.19512L10.1957 7.11033L12.2136 7.41079C12.4877 7.45161 12.5972 7.80429 12.3984 8.0059L10.9347 9.49002L11.2851 11.5909C11.3327 11.8763 11.046 12.0943 10.8013 11.9587L9 10.9608L7.1987 11.9587C6.95401 12.0943 6.66728 11.8763 6.71489 11.5909L7.06535 9.49002L5.60162 8.0059C5.40279 7.80429 5.51231 7.45161 5.78642 7.41079L7.80432 7.11033L8.70099 5.19512C8.82279 4.93496 9.17721 4.93496 9.29901 5.19512Z" fill="currentColor"/>
</svg>
