<svg width="20" height="20" viewBox="0 0 20 20" fill="none"
    xmlns="http://www.w3.org/2000/svg">
    <path fill-rule="evenodd" clip-rule="evenodd" d="M9.4114 2L9.14493 3.30792C9.03032 3.87044 8.67952 4.35659 8.1818 4.64265L6.13242 5.82054C5.63939 6.10391 5.04903 6.164 4.50901 5.98578L3.12283 5.52832L2.57752 6.44853L3.54739 7.27861C3.99134 7.65858 4.24691 8.21372 4.24691 8.79808V11.2019C4.24691 11.7863 3.99134 12.3414 3.54739 12.7214L2.57752 13.5515L3.12283 14.4717L4.50901 14.0142C5.04903 13.836 5.63939 13.8961 6.13242 14.1795L8.1818 15.3573C8.67952 15.6434 9.03032 16.1296 9.14493 16.6921L9.4114 18H10.5886L10.8551 16.6921C10.9697 16.1296 11.3205 15.6434 11.8182 15.3573L13.8676 14.1795C14.3606 13.8961 14.951 13.836 15.491 14.0142L16.8772 14.4717L17.4225 13.5515L16.4526 12.7214C16.0087 12.3414 15.7531 11.7863 15.7531 11.2019V8.79808C15.7531 8.21372 16.0087 7.65858 16.4526 7.27861L17.4225 6.44853L16.8772 5.52832L15.491 5.98578C14.951 6.164 14.3606 6.10391 13.8676 5.82054L11.8182 4.64265C11.3205 4.35659 10.9697 3.87044 10.8551 3.30792L10.5886 2H9.4114ZM12.2222 0L12.8148 2.90865L14.8642 4.08654L17.7778 3.125L20 6.875L17.7531 8.79808V11.2019L20 13.125L17.7778 16.875L14.8642 15.9135L12.8148 17.0913L12.2222 20H7.77778L7.18519 17.0913L5.1358 15.9135L2.22222 16.875L0 13.125L2.24691 11.2019V8.79808L0 6.875L2.22222 3.125L5.1358 4.08654L7.18519 2.90865L7.77778 0H12.2222ZM10 6C7.78667 6 6 7.78667 6 10C6 12.2133 7.78667 14 10 14C12.2133 14 14 12.2133 14 10C14 7.78667 12.2133 6 10 6ZM10 8C11.1109 8 12 8.88914 12 10C12 11.1109 11.1109 12 10 12C8.88914 12 8 11.1109 8 10C8 8.88914 8.88914 8 10 8Z" fill="currentColor"/>
</svg>
