<svg width="24" height="24" viewBox="0 0 24 24" fill="none" xmlns="http://www.w3.org/2000/svg">
<path fill-rule="evenodd" clip-rule="evenodd" d="M12 2C17.5228 2 22 6.47715 22 12C22 17.5228 17.5228 22 12 22C6.47715 22 2 17.5228 2 12C2 6.47715 6.47715 2 12 2ZM16.7284 8.79289C16.3378 8.40237 15.7047 8.40237 15.3141 8.79289L10.0212 14.0858L8.20711 12.2716C7.81658 11.8811 7.18342 11.8811 6.79289 12.2716C6.40237 12.6622 6.40237 13.2953 6.79289 13.6859L9.31414 16.2071C9.70467 16.5976 10.3378 16.5976 10.7284 16.2071L16.7284 10.2071C17.1189 9.81658 17.1189 9.18342 16.7284 8.79289Z" fill="currentColor"/>
</svg>
