<svg width="24" height="24" viewBox="0 0 24 24" fill="none"
    xmlns="http://www.w3.org/2000/svg">
    <path fill-rule="evenodd" clip-rule="evenodd" d="M14.8845 12.8742C15.5006 12.8742 16 13.3501 16 13.9371C16 14.219 15.8825 14.4894 15.6733 14.6887L12.7888 17.4371C12.3532 17.8522 11.6469 17.8522 11.2112 17.4371L8.32673 14.6887C7.89109 14.2736 7.89109 13.6006 8.32673 13.1855C8.53593 12.9862 8.81967 12.8742 9.11552 12.8742H14.8845ZM11.2112 6.31131C11.6468 5.89623 12.3532 5.89623 12.7888 6.31131L15.6733 9.05974C15.8825 9.25907 16 9.52942 16 9.81132C16 10.3983 15.5006 10.8742 14.8845 10.8742H9.11551C8.81966 10.8742 8.53593 10.7622 8.32673 10.5629C7.89109 10.1478 7.89109 9.47482 8.32673 9.05974L11.2112 6.31131Z" fill="currentColor"/>
</svg>
