<svg width="24" height="24" viewBox="0 0 24 24" fill="none" xmlns="http://www.w3.org/2000/svg">
<path fill-rule="evenodd" clip-rule="evenodd" d="M12 2C17.5228 2 22 6.47715 22 12C22 17.5228 17.5228 22 12 22C6.47715 22 2 17.5228 2 12C2 6.47715 6.47715 2 12 2ZM12 16C11.4477 16 11 16.4477 11 17C11 17.5523 11.4477 18 12 18C12.5523 18 13 17.5523 13 17C13 16.4477 12.5523 16 12 16ZM13.1352 10.4463L13.1802 10.4199C13.7683 10.068 14 9.79506 14 9.5C14 8.70448 13.0905 8.00002 12 8.00002C11.0923 8.00002 10.2278 8.57004 10.0044 9.13653L9.97013 9.24257C9.83616 9.77836 9.29322 10.1041 8.75743 9.97013C8.22164 9.83616 7.8959 9.29322 8.02987 8.75743C8.41297 7.22525 10.1563 6.00002 12 6.00002C14.0995 6.00002 16 7.4721 16 9.5C16 10.6098 15.4132 11.3665 14.4018 12.0156L14.2072 12.1361C14.2157 12.1311 13.2408 12.6734 13.2071 12.7071C13.0235 12.8907 13 13.0083 13 14C13 14.5523 12.5523 15 12 15C11.4477 15 11 14.5523 11 14L11.0044 13.5327C11.0298 12.3767 11.1783 11.9075 11.7929 11.2929C11.9446 11.1412 12.1102 11.024 12.3525 10.8827L13.1352 10.4463Z" fill="currentColor"/>
</svg>
