<svg width="24" height="24" viewBox="0 0 24 24" fill="none"
    xmlns="http://www.w3.org/2000/svg">
    <path fill-rule="evenodd" clip-rule="evenodd" d="M15 17C20.5147 17 24 19.275 24 24H6C6 19.275 9.48533 17 15 17ZM9 10L9.08374 10.0011C9.02868 10.3261 9 10.6599 9 11C9 12.7457 9.75555 14.3234 10.9558 15.4225C9.52966 15.7511 8.29128 16.2761 7.27083 16.9997L0 17C0 12.275 3.48533 10 9 10ZM15 7C17.2 7 19 8.8 19 11C19 13.2 17.2 15 15 15C12.8 15 11 13.2 11 11C11 8.8 12.8 7 15 7ZM9 0C11.2 0 13 1.8 13 4C13 4.51149 12.9027 5.00135 12.7257 5.452C11.5319 5.94368 10.53 6.81065 9.86671 7.90329C9.58841 7.967 9.29787 8 9 8C6.8 8 5 6.2 5 4C5 1.8 6.8 0 9 0Z" fill="currentColor"/>
</svg>
