<svg width="24" height="24" viewBox="0 0 24 24" fill="none" xmlns="http://www.w3.org/2000/svg">
<path fill-rule="evenodd" clip-rule="evenodd" d="M10.8159 2.2553C12.1906 1.63384 13.8295 2.18163 14.5451 3.5333L22.7674 19.0643C23.4726 20.3963 22.507 22 20.9998 22H2.99981C1.49266 22 0.527059 20.3963 1.23224 19.0643L9.4545 3.5333C9.72467 3.02299 10.142 2.60567 10.6523 2.33551L10.8159 2.2553ZM11.9998 16C11.4475 16 10.9998 16.4477 10.9998 17C10.9998 17.5523 11.4475 18 11.9998 18C12.5521 18 12.9998 17.5523 12.9998 17C12.9998 16.4477 12.5521 16 11.9998 16ZM11.9998 8.00003C11.4475 8.00003 10.9998 8.44774 10.9998 9.00003V13C10.9998 13.5523 11.4475 14 11.9998 14C12.5521 14 12.9998 13.5523 12.9998 13V9.00003C12.9998 8.44774 12.5521 8.00003 11.9998 8.00003Z" fill="currentColor"/>
</svg>
