<svg width="32" height="32" viewBox="0 0 32 32" fill="none" xmlns="http://www.w3.org/2000/svg">
<path fill-rule="evenodd" clip-rule="evenodd" d="M0.525513 16.6392V0H31.1922V16.6392C31.1922 24.8199 26.417 27.1551 24.1218 28.2775C23.7075 28.4801 16.8435 31.5494 16.1945 31.8396L16.1637 31.8534L15.8588 32L15.5537 31.8532C15.0999 31.6508 8.0175 28.4835 7.59603 28.2777C5.30088 27.1552 0.525513 24.8198 0.525513 16.6392ZM7.65037 18.7152C8.46977 19.1669 9.48876 19.3928 10.7073 19.3928C11.3902 19.3928 12.073 19.3192 12.7558 19.1721C13.4492 19.0251 14.0217 18.8307 14.4734 18.5891V13.4364H10.5182V14.4606H13.3546V17.7719C12.9273 17.9507 12.7397 17.9914 12.3117 18.0842L12.2358 18.1006C11.7631 18.1952 11.2641 18.2424 10.7389 18.2424C9.31017 18.2424 8.2544 17.8538 7.57157 17.0764C6.89925 16.299 6.56309 15.1802 6.56309 13.72C6.56309 12.2703 6.90976 11.1515 7.6031 10.3636C8.30694 9.56526 9.31542 9.16606 10.6285 9.16606C11.0908 9.16606 11.4952 9.21334 11.8419 9.30788C12.1886 9.39192 12.5195 9.52324 12.8346 9.70182C13.1603 9.88041 13.4964 10.122 13.8431 10.4267L14.3316 9.40243C13.8589 8.9402 13.3231 8.59354 12.7243 8.36242C12.136 8.12081 11.4374 8 10.6285 8C9.4835 8 8.50653 8.23111 7.69764 8.69334C6.88875 9.15556 6.26894 9.81213 5.83824 10.663C5.40753 11.5139 5.19218 12.5277 5.19218 13.7043C5.19218 14.8913 5.39702 15.9103 5.80672 16.7612C6.21642 17.6121 6.83097 18.2635 7.65037 18.7152ZM17.3168 10.663C16.9176 11.5034 16.718 12.5119 16.718 13.6885C16.718 14.8546 16.9228 15.863 17.3325 16.714C17.7422 17.5649 18.3253 18.2267 19.0817 18.6994C19.838 19.1616 20.752 19.3928 21.8235 19.3928C22.8635 19.3928 23.7617 19.1616 24.518 18.6994C25.2849 18.2267 25.8784 17.5649 26.2986 16.714C26.7188 15.863 26.9289 14.8493 26.9289 13.6727C26.9289 12.5067 26.7188 11.5034 26.2986 10.663C25.8889 9.81213 25.3007 9.15556 24.5338 8.69334C23.7669 8.23111 22.8635 8 21.8235 8C20.752 8 19.8328 8.23111 19.0659 8.69334C18.3095 9.15556 17.7265 9.81213 17.3168 10.663ZM19.0344 17.0449C18.4041 16.236 18.0889 15.1172 18.0889 13.6885C18.0889 12.2493 18.4041 11.1358 19.0344 10.3479C19.6647 9.5495 20.5944 9.15031 21.8235 9.15031C23.0105 9.15031 23.9297 9.5495 24.5811 10.3479C25.2324 11.1358 25.558 12.2493 25.558 13.6885C25.558 15.1172 25.2271 16.236 24.5653 17.0449C23.914 17.8433 23 18.2424 21.8235 18.2424C20.5944 18.2424 19.6647 17.8433 19.0344 17.0449Z" fill="#282C87"/>
</svg>
